<?xml version="1.0" standalone="no"?><!DOCTYPE svg PUBLIC "-//W3C//DTD SVG 1.1//EN" "http://www.w3.org/Graphics/SVG/1.1/DTD/svg11.dtd"><svg class="icon" width="200px" height="172.10px" viewBox="0 0 1190 1024" version="1.1" xmlns="http://www.w3.org/2000/svg"><path d="M609.361182 310.414734l-34.30849-1.060093c8.731318-95.157873 53.062512-155.351925 132.993584-180.601432 91.264438-28.718904 194.479023 15.323174 281.599457-37.585144 12.335637-7.517029 43.396385-36.910538 93.191881-88.180528a9.3481 9.3481 0 0 1 7.99889-2.891165c12.721125 2.052727 19.206972 9.020434 19.467177 20.912759 0.057823 2.891165-1.185378 5.936525-3.469398 8.480751-51.26999 57.726925-103.985563 114.490129-182.528875 123.741856-29.297137 3.527221-77.618139 4.780059-144.943732 3.758514-96.179418-1.541955-158.917695 55.799482-170.000494 153.424482z" fill="#4B6182" /><path d="M575.052692 309.354641l34.30849 1.060093c172.631454 0.443312 345.301457 0.578233 518.000371 0.385489 55.70311-0.096372 62.256417 38.741609 62.352789 86.831318 0.510772 187.925716 0.385489 375.783972-0.385488 563.584405-0.289116 57.630553-36.332305 62.545533-86.060341 62.545533-340.714142 0.318028-681.389736 0.318028-1022.02678 0-48.860686 0-80.567128-10.119077-80.759872-64.18386-0.770977-248.775099-0.616782-439.52452 0.481861-572.257899 0.385489-53.004689 16.286895-77.09773 71.122655-76.134008 68.231491 1.156466 235.880504 0.539684 502.966315-1.831071zM290.330776 449.923076a45.969521 45.969521 0 0 0-45.574396-46.374284l-57.245064-0.491498a45.969521 45.969521 0 0 0-46.35501 45.564758l-0.510773 57.823298a45.969521 45.969521 0 0 0 45.564759 46.364647l57.245064 0.501135a45.969521 45.969521 0 0 0 46.364647-45.564758l0.510773-57.823298z m188.783428-0.905898a45.969521 45.969521 0 0 0-45.892423-46.056256l-57.05232-0.096372a45.969521 45.969521 0 0 0-46.046619 45.892423l-0.096373 58.594275a45.969521 45.969521 0 0 0 45.882787 46.046619l57.05232 0.096372a45.969521 45.969521 0 0 0 46.046619-45.882786l0.106009-58.594275z m187.964265-1.156466a45.102172 45.102172 0 0 0-45.266004-44.947976l-58.40153 0.192744a45.102172 45.102172 0 0 0-44.93834 45.266005l0.212019 60.328973a45.102172 45.102172 0 0 0 45.256367 44.947977l58.401531-0.202382a45.102172 45.102172 0 0 0 44.947976-45.266005l-0.212019-60.328973z m190.392844 2.21656a46.933243 46.933243 0 0 0-46.856145-47.019978l-56.474087-0.096372a46.933243 46.933243 0 0 0-47.010341 46.856145l-0.096372 56.666831a46.933243 46.933243 0 0 0 46.846508 47.010341l56.474087 0.096372a46.933243 46.933243 0 0 0 47.019978-46.846508l0.096372-56.666831z m189.274927-0.067461a47.222359 47.222359 0 0 0-47.309095-47.145261l-56.088598 0.096372a47.222359 47.222359 0 0 0-47.135625 47.309094l0.096372 56.281343a47.222359 47.222359 0 0 0 47.299458 47.135624l56.088598-0.096372a47.222359 47.222359 0 0 0 47.145262-47.299457l-0.096372-56.281343zM388.948409 638.581221a45.584033 45.584033 0 0 0-45.738228-45.429837l-59.172507 0.212019a45.584033 45.584033 0 0 0-45.429838 45.738228l0.202382 57.437808a45.584033 45.584033 0 0 0 45.747865 45.429838l59.172508-0.212019a45.584033 45.584033 0 0 0 45.4202-45.738228l-0.192744-57.437809z m188.494312-1.416671a44.813055 44.813055 0 0 0-45.121446-44.495027l-59.557996 0.4144a44.813055 44.813055 0 0 0-44.504665 45.121447l0.414401 59.557996a44.813055 44.813055 0 0 0 45.131083 44.504664l59.557996-0.424037a44.813055 44.813055 0 0 0 44.495028-45.121446l-0.414401-59.557997z m188.455764-0.346939a44.234822 44.234822 0 0 0-44.466116-44.00353l-60.714462 0.318028a44.234822 44.234822 0 0 0-44.00353 44.466116l0.318029 60.714462a44.234822 44.234822 0 0 0 44.466115 44.003529l60.714462-0.318028a44.234822 44.234822 0 0 0 44.00353-44.466115l-0.318028-60.714462z m185.632058 2.515313a45.776777 45.776777 0 0 0-45.535846-46.017708l-58.979764-0.30839a45.776777 45.776777 0 0 0-46.017707 45.535846l-0.289116 57.245065a45.776777 45.776777 0 0 0 45.526209 46.017707l58.979763 0.308391a45.776777 45.776777 0 0 0 46.017708-45.535847l0.298753-57.245064zM852.508147 820.898077a46.162266 46.162266 0 0 0-46.162266-46.162265h-426.928678a46.162266 46.162266 0 0 0-46.162266 46.162265v57.823298a46.162266 46.162266 0 0 0 46.162266 46.162265h426.928678a46.162266 46.162266 0 0 0 46.162266-46.162265v-57.823298z m-544.579814-1.619052a44.427567 44.427567 0 0 0-44.813056-44.042078l-60.328973 0.530047a44.427567 44.427567 0 0 0-44.042078 44.813055l0.530046 60.13623a44.427567 44.427567 0 0 0 44.813056 44.042078l60.328973-0.530047a44.427567 44.427567 0 0 0 44.042079-44.813056l-0.530047-60.136229z m723.215254 1.590141a44.813055 44.813055 0 0 0-44.41793-45.198544l-59.557996-0.530047a44.813055 44.813055 0 0 0-45.198544 44.427567l-0.52041 59.557996a44.813055 44.813055 0 0 0 44.427567 45.198544l59.548359 0.52041a44.813055 44.813055 0 0 0 45.198544-44.427567l0.52041-59.557996z" fill="#E2F0FA" /><path d="M141.552479 402.659783m45.967771 0.401155l57.242884 0.499551q45.967771 0.401155 45.566617 46.368925l-0.504597 57.821096q-0.401155 45.967771-46.368926 45.566616l-57.242885-0.499551q-45.967771-0.401155-45.566616-46.368925l0.504597-57.821096q0.401155-45.967771 46.368926-45.566616Z" fill="#F0517A" /><path d="M330.206151 402.792468m45.969451 0.080232l57.052233 0.099575q45.969451 0.080232 45.88922 46.049683l-0.102267 58.594186q-0.080232 45.969451-46.049683 45.889219l-57.052233-0.099575q-45.969451-0.080232-45.889219-46.049683l0.102266-58.594186q0.080232-45.969451 46.049683-45.889219Z" fill="#F0517A" /><path d="M518.316294 403.278569m45.101897-0.157436l58.401175-0.203859q45.101897-0.157436 45.259333 44.944461l0.210587 60.328606q0.157436 45.101897-44.944461 45.259333l-58.401174 0.20386q-45.101897 0.157436-45.259334-44.944462l-0.210587-60.328606q-0.157436-45.101897 44.944461-45.259333Z" fill="#4B6182" /><path d="M707.21405 402.887663m46.933172 0.081914l56.474001 0.098566q46.933172 0.081914 46.851257 47.015085l-0.098902 56.666745q-0.081914 46.933172-47.015085 46.851258l-56.474001-0.098566q-46.933172-0.081914-46.851258-47.015086l0.098902-56.666745q0.081914-46.933172 47.015086-46.851257Z" fill="#4B6182" /><path d="M896.129673 403.053853m47.222287-0.082419l56.088513-0.097893q47.222288-0.082419 47.304706 47.139869l0.09823 56.281257q0.082419 47.222288-47.139869 47.304706l-56.088513 0.097893q-47.222288 0.082419-47.304706-47.139869l-0.09823-56.281257q-0.082419-47.222288 47.139869-47.304706Z" fill="#4B6182" /><path d="M238.454904 593.520239m45.583755-0.159118l59.172147-0.20655q45.583755-0.159118 45.742873 45.424637l0.200496 57.437458q0.159118 45.583755-45.424637 45.742873l-59.172147 0.206551q-45.583755 0.159118-45.742873-45.424637l-0.200496-57.437459q-0.159118-45.583755 45.424637-45.742873Z" fill="#F0517A" /><path d="M427.951637 593.394469m44.811963-0.312852l59.556545-0.415789q44.811963-0.312852 45.124815 44.499111l0.41579 59.556545q0.312852 44.811963-44.499112 45.124815l-59.556545 0.41579q-44.811963 0.312852-45.124815-44.499112l-0.415789-59.556545q-0.312852-44.811963 44.499111-45.124815Z" fill="#4B6182" /><path d="M616.488621 593.359861m44.234216-0.231612l60.71363-0.317899q44.234216-0.231612 44.465828 44.002604l0.317899 60.71363q0.231612 44.234216-44.002605 44.465828l-60.713629 0.317899q-44.234216 0.231612-44.465828-44.002604l-0.317899-60.71363q-0.231612-44.234216 44.002604-44.465828Z" fill="#4B6182" /><path d="M801.243302 592.767948m45.77615 0.239685l58.978954 0.308816q45.77615 0.239686 45.536464 46.015835l-0.299733 57.24428q-0.239686 45.77615-46.015835 45.536464l-58.978955-0.308816q-45.77615-0.239686-45.536464-46.015835l0.299734-57.24428q0.239686-45.77615 46.015835-45.536464Z" fill="#4B6182" /><path d="M333.254937 774.726175m46.162266 0l426.928678 0q46.162266 0 46.162266 46.162265l0 57.823298q0 46.162266-46.162266 46.162265l-426.928678 0q-46.162266 0-46.162266-46.162265l0-57.823298q0-46.162266 46.162266-46.162265Z" fill="#4B6182" /><path d="M158.366735 776.150919m44.425875-0.387699l60.326676-0.526463q44.425875-0.387699 44.813574 44.038177l0.524781 60.133939q0.387699 44.425875-44.038177 44.813574l-60.326676 0.526463q-44.425875 0.387699-44.813574-44.038176l-0.524781-60.13394q-0.387699-44.425875 44.038177-44.813574Z" fill="#4B6182" /><path d="M882.362766 774.75269m44.811349 0.391063l59.555729 0.519735q44.811349 0.391063 44.420286 45.202412l-0.519735 59.555728q-0.391063 44.811349-45.202412 44.420286l-59.555728-0.519735q-44.811349-0.391063-44.420286-45.202411l0.519735-59.555729q0.391063-44.811349 45.202411-44.420286Z" fill="#4B6182" /></svg>