<?xml version="1.0" standalone="no"?><!DOCTYPE svg PUBLIC "-//W3C//DTD SVG 1.1//EN" "http://www.w3.org/Graphics/SVG/1.1/DTD/svg11.dtd"><svg class="icon" width="200px" height="200.00px" viewBox="0 0 1024 1024" version="1.1" xmlns="http://www.w3.org/2000/svg"><path d="M874.914 98.394H169.087c-31.311 0-56.693 25.382-56.693 56.693v705.827c0 31.311 25.382 56.693 56.693 56.693h705.827c31.311 0 56.692-25.383 56.692-56.693V155.086c0-31.31-25.381-56.692-56.692-56.692zM624.402 721H503.7V434.77c-19.533 14.845-38.429 26.857-56.689 36.035-18.265 9.183-41.162 17.972-68.701 26.367V399.32c40.622-13.083 72.167-28.807 94.629-47.168 22.458-18.356 40.037-41.016 52.734-67.969h98.73V721z" /></svg>