<?xml version="1.0" standalone="no"?><!DOCTYPE svg PUBLIC "-//W3C//DTD SVG 1.1//EN" "http://www.w3.org/Graphics/SVG/1.1/DTD/svg11.dtd"><svg class="icon" width="200px" height="200.00px" viewBox="0 0 1024 1024" version="1.1" xmlns="http://www.w3.org/2000/svg"><path d="M180.256 124.448l7.904-21.792C202.336 63.616 245.408 32 284.352 32h455.36c38.88 0 81.952 31.648 96.16 70.656l8.032 22.08A48 48 0 0 0 800 96H224c-19.52 0-36.256 11.712-43.744 28.448z" fill="#445544" /><path d="M844.832 127.328l-0.928-2.624A48 48 0 0 0 800 96H224c-19.52 0-36.256 11.712-43.744 28.448l-1.408 3.872a47.136 47.136 0 0 0-2.848 15.68v800A48 48 0 0 0 224 992h576a48 48 0 0 0 48-48v-800a47.36 47.36 0 0 0-3.168-16.672zM790.4 902.4a32 32 0 0 1-32 32H265.6a32 32 0 0 1-32-32V185.6a32 32 0 0 1 32-32h492.8a32 32 0 0 1 32 32v716.8z" fill="#D8CFC7" /><path d="M790.4 185.6v716.8a32 32 0 0 1-32 32H265.6a32 32 0 0 1-32-32V185.6a32 32 0 0 1 32-32h492.8a32 32 0 0 1 32 32z" fill="#EDE4DC" /><path d="M485.024 249.824l14.72-9.824-4.896 4.896 2.464 2.464c1.6 0 4.064 0.832 7.328 2.464-3.296-1.632-1.664 0 4.896 4.896 6.496 1.664 12.256 4.896 17.152 9.824 4.896 1.632 10.592 4.896 17.152 9.824l2.432 9.792c1.632 4.896 2.464 9.824 2.464 14.72a18.688 18.688 0 0 1-2.464 7.328 19.072 19.072 0 0 0-2.432 7.36c-1.664 3.296-4.896 13.088-9.824 29.408l9.824 4.896-9.824 19.616 14.72-2.464c9.824-3.264 11.392-4.064 4.896-2.464a81.92 81.92 0 0 1 19.584-2.464c8.16-1.6 17.984-2.464 29.44-2.464 4.896 0 11.392-0.8 19.584-2.464h7.36a28.608 28.608 0 0 1 7.328-4.896c1.632 0 3.264-0.8 4.896-2.464l4.896 4.896 4.896 2.432 7.328 7.36c4.896 3.296 11.424 7.36 19.616 12.256 1.6 1.632 4.064 3.296 7.328 4.896 6.528 3.296 10.624 5.76 12.256 7.36a14.816 14.816 0 0 1 9.824 9.824c1.632 1.632 2.464 3.296 2.464 4.896a19.52 19.52 0 0 1 2.432 7.328c1.632 3.296 2.432 7.36 2.432 12.256l-9.792 12.256c-6.56 8.192-13.92 14.72-22.048 19.616-6.56 4.896-16.384 13.088-29.44 24.512l-14.72 14.688a52.16 52.16 0 0 1-12.256 9.824c-9.824 6.56-18.016 12.256-24.512 17.152l4.896 7.36c0 1.632 1.6 4.096 4.896 7.328 3.264 4.896 6.496 9.824 9.792 14.72l-2.432 4.896a66.912 66.912 0 0 0-7.328 9.824c3.264-4.896 1.6-1.632-4.896 9.792H600.096l-14.688-4.864c-11.456-4.896-19.616-6.528-24.544-4.896-6.56 0-13.92 1.632-22.048 4.896l-2.432 9.792c-1.664 1.664-2.464 6.56-2.464 14.72a100.16 100.16 0 0 0-2.432 17.152c-1.664 4.896-2.464 14.72-2.464 29.44-1.632 11.424-2.432 20.448-2.432 26.976s-0.832 16.352-2.464 29.408c0 13.088-0.832 22.048-2.432 26.976-1.664 4.896-2.464 12.256-2.464 22.048s-0.8 17.152-2.432 22.048c0 3.264-0.832 8.96-2.464 17.152 0 9.824-0.8 16.352-2.432 19.616 0 3.264-0.832 7.328-2.432 12.256 0 4.896-0.832 8.96-2.464 12.256 0 1.632-0.8 3.296-2.432 4.896 0 6.528-1.664 11.424-4.896 14.72l-4.896-9.824a775.296 775.296 0 0 1-7.328-34.304c0-3.296-0.832-8.192-2.464-14.72 0-6.528-0.832-12.256-2.432-17.152-1.664-3.296-2.464-11.392-2.464-24.544v-34.304c0-9.792-0.8-20.416-2.432-31.872a274.88 274.88 0 0 1-2.464-39.232v-58.848l-7.328 2.464c-4.896 0-11.424 1.632-19.584 4.896a21.632 21.632 0 0 0-9.824 2.432H431.104a18.944 18.944 0 0 0-7.328-2.432c-4.896-3.296-13.92-8.96-26.976-17.184v19.616c0 11.424-0.832 19.616-2.432 24.544l-2.464 2.432a28.288 28.288 0 0 1-4.896 7.328l-19.584-19.584a139.392 139.392 0 0 1-12.288-14.72 97.6 97.6 0 0 1-12.256-14.72c0-3.264-1.664-7.328-4.896-12.256-3.296-3.264-4.896-6.496-4.896-9.824a196.512 196.512 0 0 0-7.328-29.408 62.72 62.72 0 0 1-2.464-19.616 54.4 54.4 0 0 0-2.432-17.152c0-3.264-0.832-8.16-2.432-14.688a46.4 46.4 0 0 0-2.464-14.72 19.36 19.36 0 0 0-2.432-7.328c0-4.896-0.832-8.16-2.464-9.824-1.632-4.896-2.432-13.888-2.432-26.976l7.328 4.896c4.896 1.632 9.824 6.56 14.72 14.688 1.6 1.664 4.064 4.096 7.328 7.36a73.6 73.6 0 0 0 7.36 9.824c6.496 4.896 12.256 13.888 17.152 26.976l2.432-9.824c1.632-8.16 8.16-17.152 19.616-26.976a566.4 566.4 0 0 1 29.408-24.512c8.16-4.896 15.52-8.96 22.048-12.256 8.16-4.896 13.056-7.328 14.72-7.328a16.608 16.608 0 0 1 12.256-4.896c4.896-3.264 8.96-5.728 12.256-7.36a26.784 26.784 0 0 0 4.896-7.36c0-1.6 0.8-3.264 2.464-4.896 1.6-4.896 2.432-12.256 2.432-22.048 0-11.424 0.8-19.616 2.464-24.512 1.6-6.528 2.432-12.256 2.432-17.184s-0.832-9.792-2.432-14.688c0-1.6-0.832-3.264-2.464-4.896a102.336 102.336 0 0 0-4.896-12.256l-2.432 9.824c-1.664 1.632-2.464 5.76-2.464 12.256a67.776 67.776 0 0 0-2.496 14.816 53.6 53.6 0 0 0-2.432 17.152v34.336l-2.464-19.616c-1.664-14.72-2.432-27.776-2.432-39.232 0-14.688 1.6-26.112 4.896-34.304l-4.896-9.824 2.432-4.896c0-3.264 7.328-9.792 22.048-19.616l-4.896 9.824z m-4.896 196.128l-7.328 2.464c-4.896 0-12.256 2.464-22.048 7.328-11.424 3.296-26.144 8.192-44.128 14.72l-4.896 7.36a141.76 141.76 0 0 1-7.328 17.152c-1.664 1.632-2.464 4.896-2.464 9.824a39.328 39.328 0 0 0-2.432 12.256 70.752 70.752 0 0 0-2.464 17.152c0 3.296 1.632 8.192 4.896 14.72l14.72-9.824h9.824v-9.792h19.584c11.424 0 26.112-3.264 44.128-9.824v-73.536z m127.488-63.776l-4.896 9.824-29.44 4.896-4.896-4.896-2.432 2.464c-1.664 0-3.296 0.832-4.896 2.464-1.664 1.632-3.296 2.464-4.896 2.464-3.296 0-10.656 4.096-22.048 12.256v19.616c0 13.12-0.832 22.08-2.432 26.976a30.08 30.08 0 0 0 0 17.184c0 1.632 0.768 4.096 2.432 7.328 1.632 6.56 3.264 12.256 4.896 17.184l12.256-9.824 9.824-9.792c6.528-4.896 12.256-9.824 17.152-14.72l-4.896-4.896 7.36-4.896 7.328-7.328 4.896-2.464a27.52 27.52 0 0 0 4.896-7.36 28.352 28.352 0 0 1 4.896-7.36l9.824-4.896-4.896-9.824 7.328-7.36c3.264-3.264 7.328-10.624 12.256-22.048l-19.616-4.992z" fill="#750707" /></svg>