<svg
  t="1741829178070"
  class="icon"
  viewBox="0 0 1024 1024"
  version="1.1"
  xmlns="http://www.w3.org/2000/svg"
  p-id="1926"
  width="200"
  height="200"
>
  <path
    d="M492.479078 536.363176A487.602887 487.602887 0 0 1 824.049041 74.700762a487.602887 487.602887 0 1 0 0 923.324827A487.602887 487.602887 0 0 1 492.479078 536.363176z m422.849223-288.465868A270.912164 270.912164 0 0 0 882.561387 140.429631a268.181588 268.181588 0 0 0-33.352037 106.687512 276.178275 276.178275 0 0 0-112.538747 33.74212 276.178275 276.178275 0 0 0 112.538747 33.547079A266.231176 266.231176 0 0 0 882.561387 421.093853a269.936958 269.936958 0 0 0 33.352038-107.467676A270.717123 270.717123 0 0 0 1019.090196 280.859263a270.912164 270.912164 0 0 0-103.761895-32.961955z m-791.086924-175.53704A176.512245 176.512245 0 0 0 102.396768 0a180.803151 180.803151 0 0 0-22.429733 71.385063A184.313891 184.313891 0 0 0 4.87619 93.619754a184.313891 184.313891 0 0 0 75.090845 22.234692A180.803151 180.803151 0 0 0 102.396768 187.044467a175.537039 175.537039 0 0 0 21.844609-71.580103A182.948603 182.948603 0 0 0 193.480987 93.619754a179.632904 179.632904 0 0 0-69.23961-21.844609zM751.103649 491.50371A202.842801 202.842801 0 0 0 726.528463 571.665625a207.328748 207.328748 0 0 0-84.45282 25.160309A210.254365 210.254365 0 0 0 726.528463 621.791202 201.867595 201.867595 0 0 0 751.103649 702.148157a203.818007 203.818007 0 0 0 24.965268-80.551997 205.183295 205.183295 0 0 0 78.016462-24.575185 201.867595 201.867595 0 0 0-78.016462-24.575186 203.622966 203.622966 0 0 0-24.965268-80.942079z"
    p-id="1927"
  ></path>
  <path
    d="M531.487309 536.363176A511.983031 511.983031 0 0 0 825.414329 994.70989C602.092207 951.800836 433.966731 763.000998 433.966731 536.363176S602.092207 120.730475 825.414329 78.016462A511.78799 511.78799 0 0 0 531.487309 536.363176z"
    p-id="1928"
  ></path>
</svg>
