<?xml version="1.0" standalone="no"?><!DOCTYPE svg PUBLIC "-//W3C//DTD SVG 1.1//EN" "http://www.w3.org/Graphics/SVG/1.1/DTD/svg11.dtd"><svg class="icon" width="200px" height="200.00px" viewBox="0 0 1024 1024" version="1.1" xmlns="http://www.w3.org/2000/svg"><path d="M341.333333 320a85.333333 85.333333 0 0 1 85.333334-85.333333h170.666666a85.333333 85.333333 0 0 1 85.333334 85.333333v640a42.666667 42.666667 0 0 1-42.666667 42.666667H384a42.666667 42.666667 0 0 1-42.666667-42.666667zM42.666667 448m42.666666 0l170.666667 0q42.666667 0 42.666667 42.666667l0 469.333333q0 42.666667-42.666667 42.666667l-170.666667 0q-42.666667 0-42.666666-42.666667l0-469.333333q0-42.666667 42.666666-42.666667ZM725.333333 576m42.666667 0l170.666667 0q42.666667 0 42.666666 42.666667l0 341.333333q0 42.666667-42.666666 42.666667l-170.666667 0q-42.666667 0-42.666667-42.666667l0-341.333333q0-42.666667 42.666667-42.666667ZM507.306667 54.4l-24.746667 17.92v-30.293333l24.746667-18.56h27.946666V170.666667h-27.946666V54.4zM128.298667 361.813333l48.853333-63.36q8.106667-10.88 8.106667-20.693333v-2.986667q0-7.68-4.138667-12.16-4.181333-4.48-11.221333-4.48t-11.093334 4.693334q-4.053333 4.693333-4.053333 13.013333v3.413333h-27.050667v-5.12q0-11.52 5.205334-20.48 5.205333-8.96 15.061333-14.08 9.813333-5.12 23.04-5.12 12.8 0 22.485333 5.333334 9.728 5.333333 14.933334 14.293333 5.248 8.96 5.248 19.84v3.626667q0 9.6-3.413334 17.706666-3.413333 8.106667-10.069333 16.64l-36.693333 47.573334h50.176V384h-85.333334v-22.186667zM852.693333 514.346667q-20.693333 0-32.085333-9.898667-11.434667-9.941333-11.434667-28.074667v-4.48h26.026667v3.2q0 7.68 4.352 11.648 4.394667 3.925333 12.714667 3.925334 7.893333 0 12.458666-5.12 4.608-5.12 4.608-13.866667v-3.84q0-9.6-4.906666-14.72-4.906667-5.12-14.293334-5.12h-7.466666v-23.68h7.253333q8.106667 0 12.586667-4.693333 4.48-4.693333 4.48-13.013334v-3.2q0-8.106667-4.181334-12.672-4.138667-4.608-11.392-4.608-7.466667 0-11.52 4.181334-4.053333 4.138667-4.053333 11.392V405.333333h-25.6v-3.626666q0-18.56 11.221333-28.885334 11.178667-10.368 31.018667-10.368 19.413333 0 30.506667 10.581334 11.093333 10.538667 11.093333 28.245333v3.2q0 9.6-4.48 17.152-4.48 7.594667-12.8 12.074667 9.6 4.053333 14.592 12.8 5.034667 8.746667 5.034667 21.12v4.053333q0 13.013333-5.546667 22.613333-5.546667 9.6-15.573333 14.848-10.026667 5.205333-22.613334 5.205334z" /></svg>