<svg
  t="1741829210847"
  class="icon"
  viewBox="0 0 1024 1024"
  version="1.1"
  xmlns="http://www.w3.org/2000/svg"
  p-id="2088"
  width="200"
  height="200"
>
  <path
    d="M511.35459688 773.87056062c-57.79231406 0.66271125-98.56854375-14.70049313-123.31885688-30.60946031-58.23282187 58.34587313-137.9024025 74.25483938-240.11975625 79.22517375 94.14787031 126.08665125 316.80713531 63.76451156 363.43861312-48.61571343zM588.3733325 762.37447063c0.11305031 82.43347594-44.97469969 150.06120375-113.81479969 225.97671937 155.69814656 22.43472281 269.18159063-179.01388594 222.66316313-291.49936406-40.44487406 41.32589062-80.11398656 59.33994-108.84836344 65.52264468zM774.23263531 510.988625c0.66660937 57.90536437-14.696595 98.67769594-30.60946031 123.31885781 58.34587313 58.23282187 74.14958531 137.90630063 79.22907188 240.2289075 125.97749906-94.26092063 63.76451156-316.80713531-48.61961157-363.54776531zM697.22169594 325.12542406c41.32589062 40.44487406 59.33604094 80.22313875 65.52654375 108.84056719 82.43347594 0 149.9481525 45.08385281 225.86366906 113.81869781 22.53997688-155.69814656-178.90473375-269.07243844-291.39021281-222.659265zM511.35459688 248.21584156c57.79231406-0.66271125 98.67769594 14.696595 123.31885781 30.60946031 58.23672-58.34587313 137.91019875-74.25873844 240.11975625-79.22907187-94.14787031-126.08275312-316.69798312-63.76061344-363.43861407 48.61961156zM434.33586219 259.7080325c-0.11305031-82.54652625 45.08385281-150.06120375 113.81479968-225.97671937-155.69424844-22.43082469-269.06854031 178.90083469-222.659265 291.39411093 40.44487406-41.2167375 80.11398656-59.33994 108.84446532-65.41739156zM248.47266125 510.988625c-0.55355906-57.79231406 14.696595-98.56854375 30.7186125-123.20970562C220.73624844 329.5460975 204.93253625 249.87261875 199.85304969 147.55001094c-125.97360094 94.14787031-63.76061344 316.80713531 48.61961156 363.43861406zM325.49139687 696.85182594c-41.32978875-40.33572187-59.33994-80.11398656-65.52654374-108.73531313-82.43347594 0-149.95205062-45.08385281-225.86366907-113.81479968-22.543875 155.69424844 178.90083469 269.06854031 291.39021282 222.55011281zM558.18878656 691.77233938l-0.33915187 0.07016906 0.33915187-0.07016907zM364.27559469 616.73783937l1.32542156-10.27982062c127.318515 75.482805 230.73264656 3.30965719 271.59853781-68.23196438-20.71947 17.16032156-47.69961281 27.56488687-77.23314187 27.56488782-65.29654406 0-118.23547312-50.75977875-118.23547313-113.37429188 0-6.03846844 0.50288063-11.9599875 1.45406625-17.74116844-5.29779094-68.97654 48.0660525-131.54037469 123.24479063-120.47309812a194.13929438 194.13929438 0 0 0-47.45791875-5.87863781c-106.98107719 0-193.70658281 86.72550469-193.70658188 193.70658281 0 88.09380844 58.82926219 162.41102156 139.33307813 185.9177775-37.21318219-11.18032781-72.35246906-34.42979531-100.32277875-71.21026688zM568.99877563 689.19166344c-0.73677938 0.19881375-1.47745594 0.40542375-2.21423438 0.59644031 0.7406775-0.18711844 1.47355781-0.39762656 2.21423438-0.59644031zM470.77718094 689.69844313c-1.13830406-0.30016875-2.27271-0.63542344-3.407115-0.95508375 1.14220219 0.31186406 2.26101469 0.66271125 3.407115 0.95508375zM587.82757062 683.10641563c-1.29813469 0.49118625-2.59626844 0.98237156-3.90219937 1.44627 1.30982906-0.46779656 2.60796375-0.95508375 3.90219937-1.44627zM603.76772375 676.23371094l-1.82050688 0.86932125 1.82050688-0.86932125zM595.94383344 679.81625zM577.71537688 686.65386969c-1.10321906 0.35474531-2.21813344 0.67830469-3.32914875 1.00966031 1.11491437-0.33525375 2.22592969-0.65881312 3.32914875-1.00966031z"
    p-id="2089"
  ></path>
  <path
    d="M559.97420844 565.79484031c29.52963094 0 56.50977281-10.40456531 77.23314187-27.56488687 1.90626938-3.33694594 3.683895-6.67779 5.31728344-9.9991425 66.189255-238.1316225-253.93533469-173.70829781-153.0473025-2.54169281-29.60759719-27.52590375-43.89876938-59.91298969-46.28452875-91.00583907a109.61243063 109.61243063 0 0 0-1.45406625 17.7411675c0 62.61061406 52.93503094 113.37039281 118.23547219 113.37039375z"
    p-id="2090"
  ></path>
  <path
    d="M568.58945469 314.51814687c-0.72508406-0.1208475-1.43457469-0.20271188-2.15576063-0.31186406-75.17873719-11.06727656-128.54258156 51.49265906-123.24479062 120.47309719 2.38576031 31.09284938 16.6769325 63.47993531 46.28452969 91.00584-100.88803312-171.16660594 219.23265844-235.58992969 153.04730156 2.54169187a181.61015438 181.61015438 0 0 1-5.3172825 9.9991425c-40.86589031 71.5416225-144.28002281 143.71476938-271.59853688 68.23196438l-1.3254225 10.27982062c27.9664125 36.78047062 63.10959656 60.02993906 100.32667782 71.21806313 0.91999875 0.27677906 1.84779469 0.52627031 2.76779343 0.78745687 1.13440594 0.31966031 2.26881094 0.654915 3.407115 0.95508375 28.73437781 7.56660281 58.52129625 8.04999187 87.06855563 2.14406532l0.33915187-0.07016907a191.78082188 191.78082188 0 0 0 8.59575469-1.98423562c0.73677938-0.19101656 1.47745594-0.40152469 2.21423438-0.59644031 1.80101531-0.48338906 3.59813156-0.99406688 5.3874525-1.53203157 1.11101625-0.33135562 2.22592969-0.654915 3.32914875-1.00966031 2.0816925-0.66271125 4.1477925-1.36830375 6.20999437-2.09728594 1.30593094-0.4638975 2.60406469-0.95508375 3.90219938-1.44627a239.32060406 239.32060406 0 0 0 8.11626281-3.29406468 192.44743125 192.44743125 0 0 0 7.82389031-3.58253813c38.81538469-18.78981094 72.20823187-50.57266031 92.89651594-93.30973594 54.3657075-120.88241906-21.32760563-242.21704219-128.074785-268.40193z"
    p-id="2091"
  ></path>
</svg>
